<svg version="1.2" xmlns="http://www.w3.org/2000/svg" viewBox="0 0 1532 771" width="1532" height="771"><defs><clipPath clipPathUnits="userSpaceOnUse" id="cp1"><path d="m2575.67-985.4v11809.98h-5915.34v-11809.98z"/></clipPath></defs><style>.a{fill:#221f1f}.b{fill:#e88f3d}</style><path fill-rule="evenodd" class="a" d="m123.1 162.7c-1.6-18.7-15.5-20.3-21.7-20.3-13.9 0-23.2 11-24.7 20.3 0 14.1 9.2 17.2 40.2 26.6 29.4 9.4 68.1 25 63.4 73.5-4.6 54.7-51 84.4-94.4 84.4-24.7 0-54.1-7.8-71.1-31.3-14-18.7-14-37.5-14-53.1h60.4c1.5 10.9 4.6 31.3 29.4 31.3 20.1 0 27.8-14.1 29.4-25.1 1.5-17.2-10.9-21.8-52.6-35.9-27.9-9.4-52.6-29.7-49.5-68.8 3-46.9 49.5-75 89.7-75 37.1 0 75.8 25 74.3 73.4zm349.7-70.3l-17.1 201.6c-9.2 117.3-100.5 143.9-148.5 143.9-49.5 0-100.6-26.6-117.6-79.8h68.1c21.7 26.6 49.5 26.6 58.8 26.6 34 0 75.8-23.4 83.5-75l-1.5-1.6c-9.3 11-34 39.1-85.1 39.1-60.4 0-122.2-50-116.1-131.3 7.8-76.6 74.3-126.6 137.8-126.6 51 0 71.1 28.1 75.8 37.5h1.5l3.1-34.4zm-136.1 50c-35.6 0-75.9 28.2-79 73.5-4.6 50 31 78.1 68.1 78.1 35.6 0 72.7-29.7 77.4-78.1 3.1-34.4-23.2-73.5-66.5-73.5zm190.3-20.3h-40.3l3.1-29.7h40.3c3.1-34.4 10.8-90.7 105.2-92.2l-1.6 28.1c-66.5 0-69.6 40.6-71.1 64.1h65l-1.6 29.7h-66.5l-18.6 220.4h-32.5zm125.3-115.7h34.1l-29.4 336.1h-32.5z"/><path fill-rule="evenodd" class="a" d="m718.8 230c-1.5 48.4 41.8 89.1 91.3 89.1 48 0 83.5-26.6 97.5-57.9h34c-21.6 50-74.3 87.6-133.1 87.6-71.1 0-128.4-56.3-122.2-131.4 6.2-70.3 69.6-129.7 143.9-131.3 55.7 0 92.8 32.9 108.3 64.1 15.5 26.6 17 54.7 13.9 79.8zm202.7-29.7c-6.1-57.9-52.6-84.5-92.8-84.5-40.2 0-92.8 26.6-106.8 84.5zm74.3 29.7c-3.1 48.4 40.2 89.1 91.3 89.1 46.4 0 82-26.6 95.9-57.9h35.6c-21.6 50-74.2 87.6-133 87.6-72.8 0-130-56.3-123.8-131.4 6.2-70.3 69.6-129.7 145.4-131.3 55.7 0 92.9 32.9 108.3 64.1 15.5 26.6 17.1 54.7 12.4 79.8zm201.2-29.8c-4.7-57.8-51.1-84.4-92.9-84.4-40.2 0-92.8 26.6-106.7 84.4zm97.4 139.2c-10.8 0-21.6 0-32.5 1.5l18.6-218.8h-54.1l1.5-29.7h54.2l7.7-86h32.5l-7.7 86h61.9l-3.1 29.7h-60.4z"/><path class="b" d="m206.6 663l111.4 107.8c407-98.4 795.4-379.8 1213.1-375.1l-17-15.7c-450.2-32.8-866.5 248.6-1307.5 283zm1276.6-311.1c-63.5-9.4-126.9-14.1-188.8-12.5-10.8 0-21.7 0-32.5 1.5-420.9 15.7-823.2 215.8-1253.3 132.9l151.6 145.4c456.5-6.2 885.1-289.2 1346.2-245.4z"/><g clip-path="url(#cp1)"></g></svg>